<svg width="1004" height="1064" viewBox="0 0 1004 1064" fill="none" xmlns="http://www.w3.org/2000/svg">
<circle cx="471.926" cy="673.334" r="274" fill="#E6D9D4" stroke="black" stroke-width="20"/>
<path d="M275.926 721.334H631.926V786.334L613.926 843.834L555.926 895.334L474.926 912.834L392.926 895.334L337.926 858.334L285.426 786.334L275.926 721.334Z" fill="#150000"/>
<path d="M396.926 876.334L430.926 829.834L483.926 808.334L538.926 813.334L581.426 843.834L592.426 867.334L562.926 892.834L483.926 911.834L407.926 902.334L392.426 892.834L396.926 876.334Z" fill="#3F0101"/>
<path d="M632.423 719.334C632.341 789.397 630.164 829.23 594.894 864.412C576.439 882.822 558.669 894.213 539.141 901.06C519.545 907.931 497.874 910.334 471.426 910.334C419.307 910.334 369.325 889.681 332.475 852.923C296.808 817.345 276.272 769.501 274.989 719.334L471.426 719.334L632.423 719.334Z" stroke="black" stroke-width="10"/>
<rect x="254.926" y="714.334" width="21" height="14" fill="black"/>
<path d="M393.926 896.334C393.926 886.834 393.719 887.108 399.147 874.004C404.574 860.901 412.529 848.995 422.558 838.967C432.587 828.938 444.493 820.983 457.596 815.555C470.699 810.128 484.743 807.334 498.926 807.334C513.108 807.334 527.152 810.128 540.255 815.555C553.359 820.983 565.264 828.938 575.293 838.967C585.322 848.995 588.498 855.731 593.926 868.834" stroke="black" stroke-width="10"/>
<path d="M483.926 586.334L506.926 549.834L549.426 527.334L592.926 535.834L627.926 567.334L638.926 609.334V658.334H483.926V586.334Z" fill="white"/>
<mask id="path-8-inside-1_4_3" fill="white">
<path d="M481.926 668.334C481.926 671.617 483.982 674.868 487.977 677.901C491.973 680.934 497.828 683.69 505.211 686.012C512.593 688.333 521.357 690.175 531.002 691.431C540.648 692.688 550.986 693.334 561.426 693.334C571.866 693.334 582.204 692.688 591.849 691.431C601.494 690.175 610.258 688.333 617.641 686.012C625.023 683.69 630.879 680.934 634.874 677.901C638.869 674.868 640.926 671.617 640.926 668.334L561.426 668.334L481.926 668.334Z"/>
</mask>
<path d="M481.926 668.334C481.926 671.617 483.982 674.868 487.977 677.901C491.973 680.934 497.828 683.69 505.211 686.012C512.593 688.333 521.357 690.175 531.002 691.431C540.648 692.688 550.986 693.334 561.426 693.334C571.866 693.334 582.204 692.688 591.849 691.431C601.494 690.175 610.258 688.333 617.641 686.012C625.023 683.69 630.879 680.934 634.874 677.901C638.869 674.868 640.926 671.617 640.926 668.334L561.426 668.334L481.926 668.334Z" fill="#030303" stroke="black" stroke-width="10" mask="url(#path-8-inside-1_4_3)"/>
<path d="M637.926 609.334C637.926 564.599 603.004 528.334 559.926 528.334C516.847 528.334 481.926 564.599 481.926 609.334" stroke="black" stroke-width="10"/>
<path d="M481.926 609.334L481.926 658.334H637.926V609.334" stroke="black" stroke-width="10"/>
<circle cx="598.426" cy="577.834" r="26.5" fill="black" stroke="black" stroke-width="10"/>
<path d="M253.926 590.834L279.926 549.334L317.426 535.334L358.426 549.334L381.926 587.834V659.334H253.926V590.834Z" fill="white"/>
<mask id="path-13-inside-2_4_3" fill="white">
<path d="M251.926 667.152C251.926 670.197 253.672 673.211 257.064 676.024C260.456 678.836 265.428 681.392 271.696 683.544C277.964 685.697 285.405 687.405 293.594 688.57C301.784 689.735 310.561 690.334 319.426 690.334C328.29 690.334 337.067 689.735 345.257 688.57C353.446 687.405 360.887 685.697 367.155 683.544C373.423 681.392 378.395 678.836 381.787 676.024C385.18 673.211 386.926 670.197 386.926 667.152L319.426 667.152L251.926 667.152Z"/>
</mask>
<path d="M251.926 667.152C251.926 670.197 253.672 673.211 257.064 676.024C260.456 678.836 265.428 681.392 271.696 683.544C277.964 685.697 285.405 687.405 293.594 688.57C301.784 689.735 310.561 690.334 319.426 690.334C328.29 690.334 337.067 689.735 345.257 688.57C353.446 687.405 360.887 685.697 367.155 683.544C373.423 681.392 378.395 678.836 381.787 676.024C385.18 673.211 386.926 670.197 386.926 667.152L319.426 667.152L251.926 667.152Z" fill="#030303" stroke="black" stroke-width="10" mask="url(#path-13-inside-2_4_3)"/>
<circle cx="344.426" cy="577.834" r="26.5" fill="black" stroke="black" stroke-width="10"/>
<path d="M384.378 612.443C384.378 570.962 354.728 537.334 318.152 537.334C281.576 537.334 251.926 570.962 251.926 612.443" stroke="black" stroke-width="10"/>
<path d="M251.926 612.443L251.926 657.88H384.378V612.443" stroke="black" stroke-width="10"/>
<g opacity="0.15">
<path d="M206.331 676.501L200.158 633.763L238.926 614.379V732.998L206.331 676.501Z" fill="black" stroke="black" stroke-width="5"/>
<path d="M669.568 717.023L675.293 642.158L693.957 635.666L700.78 675.69L669.568 717.023Z" fill="black" stroke="black" stroke-width="5"/>
<path d="M270.106 577.267L302.15 656.967L256.918 597.324L254.75 594.466L252.819 597.488L233.897 627.105L227.979 541.524L246.216 514.648L290.412 485.498L312.658 531.806L271.199 555.156L269.926 555.873L269.926 557.334L269.926 576.334L269.926 576.818L270.106 577.267Z" fill="black" stroke="black" stroke-width="5"/>
<path d="M695.012 561.098L675.578 635.597L594.15 558.024L593.83 557.719L593.425 557.543L526.925 528.543L525.34 527.852L524.134 529.091L487.634 566.591L487.142 567.096L486.987 567.784L479.987 598.784L479.734 599.905L480.42 600.827L506.111 635.327L465.862 607.038L432.695 540.296L531.095 481.643L625.822 523.58L695.012 561.098ZM389.418 638.764L339.367 546.097L355.786 521.9L450.227 619.657L484.162 723.754L389.418 638.764Z" fill="black" stroke="black" stroke-width="5"/>
</g>
<path d="M678.686 651.516L667.896 663.675L675.406 579.278L675.698 575.991L672.792 574.43L551.792 509.43L545.247 516.58L571.921 557.172L460.972 521.08L442.599 515.103L455.766 529.242L498.156 574.759L440.64 546.352L426.415 539.326L434.041 553.238L497 668.096L371.914 574.826L358.165 564.574L364.251 580.609L381.98 627.318L264.961 510.299L256.855 515.863L291.669 594.29L243.934 547.272L234.865 538.34L235.43 551.057L240.827 672.467L217.088 646.93L208.855 638.074L208.429 650.158L205.429 735.158L205.396 736.078L205.694 736.95L226.694 798.45L226.74 798.584L226.793 798.715L251.252 858.961L244.692 848.227L236.87 835.428L235.448 850.36L232.093 885.583L194.758 745.05L190.293 728.244L185.149 744.855L164.426 811.783L164.426 650.334L164.426 636.043L155.516 647.217L120.965 690.552L137.992 652.371L138.115 652.094L138.204 651.805L158.204 586.805L149.651 582.056L108.082 629.912L133.116 562.065L133.225 561.771L133.296 561.466L149.796 490.466L152.693 478L142.112 485.201L124.195 497.395L180.255 400.335L181.298 398.53L180.749 396.519L164.425 336.665L164.425 286.29L180.525 245.69L188.999 294.687L189.149 295.557L189.589 296.324L205.089 323.324L214.425 339.587L214.425 320.834L214.425 266.353L229.727 193.3L245.926 153.427L245.926 240.835L245.925 242.336L246.752 243.589L263.252 268.589L268.006 275.791L271.89 268.085L302.614 207.133L351.123 150.813L343.444 240.407L342.217 254.713L352.064 244.264L424.66 167.224L593.229 115.218L545.792 165.399L545.627 165.574L545.479 165.765L524.479 192.765L513.443 206.954L530.22 200.501L568.929 185.613L634.183 169.475L607.133 187.687L606.918 187.832L606.719 187.998L573.219 215.998L559.36 227.581L577.203 224.774L675.202 209.353L786.945 214.51L701.518 261.453L695.366 264.833L700.571 269.542L742.571 307.542L743.372 308.267L744.4 308.596L871.867 349.422L765.522 393.211L756.795 396.804L764.669 402.006L892.983 486.777L828.463 499.428L820.645 500.961L825.426 507.334L861.195 555.028L821.79 539.195L813.71 535.949L814.979 544.563L842.071 728.528L805.777 664.373L797.214 649.236L796.431 666.609L792.615 751.19L783.361 694.035L773.445 694.39L760.48 839.763L747.361 759.033L737.656 758.333L701.926 871.807L701.926 844.834L692.351 842.815L671.143 890.863L694.382 715.993L694.464 715.377L694.392 714.76L687.392 654.26L686.107 643.152L678.686 651.516Z" fill="black" stroke="black" stroke-width="10"/>
<path d="M741.983 706.729L697.315 826.256L716.89 711.254L716.95 710.904L716.91 710.552L703.725 594.334H737.579L750.877 637.552L741.983 706.729Z" fill="#3E3E3E" stroke="black" stroke-width="5"/>
<path d="M185.298 417.964L196.902 390.578L219.517 377.461L273.92 431.864L316.2 506.08L353.574 587.334L229.768 475.629L185.298 417.964Z" fill="#3E3E3E" stroke="black" stroke-width="5"/>
<path d="M189.488 511.421L198.479 477.255L225.726 494.304L225.726 622.889L199.328 562.588L189.488 511.421Z" fill="#3E3E3E" stroke="black" stroke-width="5"/>
<path d="M341.132 523.581L321.436 468.614L365.245 481.447L396.746 537.558L396.794 537.644L396.849 537.727L425.349 580.227L425.403 580.306L425.462 580.381L477.712 646.724L385.167 577.016L341.132 523.581Z" fill="#3E3E3E" stroke="black" stroke-width="5"/>
<path d="M269.524 389.041L361.024 410.192L421.128 443.31L321.262 425.942L284.504 405.848L269.524 389.041Z" fill="#3E3E3E" stroke="black" stroke-width="5"/>
<path d="M457.916 479.982L488.766 493.094L542.359 535.962L446.907 501.85L419.378 479.982L457.916 479.982Z" fill="#3E3E3E" stroke="black" stroke-width="5"/>
<path d="M672.566 474.434L633.603 453.629L633.369 453.504L633.113 453.43L591.113 441.43L591.046 441.411L590.979 441.396L542.479 430.396L533.094 428.268L540.256 434.695L559.756 452.195L559.856 452.284L559.965 452.363L618.929 494.837L672.835 536.642L432.532 418.092L432.377 418.016L432.214 417.962L284.714 368.962L283.984 368.719L283.244 368.929L247.57 379.048L227.357 370.841L266.654 345.834L335.087 345.834L557.698 407.227L624.763 429.582L646.739 445.697L672.566 474.434Z" fill="#3E3E3E" stroke="black" stroke-width="5"/>
<path d="M462.587 286.834L393.144 277.859L435.292 211.558L510.639 154.752L470.052 200.679L469.817 200.945L469.665 201.267L448.665 245.767L445.846 251.742L451.914 249.131L528.213 216.304L492.513 258.725L489.312 262.528L494.274 262.83L584.078 268.287L651.112 314.632L561.665 286.946L561.304 286.834L560.926 286.834L462.587 286.834Z" fill="#3E3E3E" stroke="black" stroke-width="5"/>
<path d="M399.019 278.545L348.451 269.551L423.416 173.488L514.168 145.128L432.854 210.89L432.429 211.234L432.186 211.723L399.019 278.545Z" fill="#858585" stroke="black" stroke-width="5"/>
<path d="M333.21 299.263L476.617 312.816L618.919 334.834L462.716 334.834L378.126 314.931L333.21 299.263Z" fill="#858585" stroke="black" stroke-width="5"/>
<path d="M278.616 269.394L297.587 222.162L330.904 184.141L304.899 254.606L278.616 269.394Z" fill="#858585" stroke="black" stroke-width="5"/>
<path d="M222.563 304.889L217.952 260.458L230.474 198.987L234.892 281.569L222.563 304.889Z" fill="#858585" stroke="black" stroke-width="5"/>
<path d="M335.59 343.924L335.264 343.834L334.926 343.834L265.426 343.834L264.613 343.834L263.955 344.313L227.578 370.769L220.383 359.786L248.33 313.941L292.879 313.941L457.813 348.76L666.86 410.379L558.321 405.35L335.59 343.924Z" fill="#858585" stroke="black" stroke-width="5"/>
<path d="M180.212 483.47L200.823 478.415L186.601 514.416L186.501 514.667L186.458 514.934L180.458 551.934L180.451 551.975L180.446 552.016L173.893 602.981L167.54 554.842L170.891 504.444L180.212 483.47Z" fill="#858585" stroke="black" stroke-width="5"/>
</svg>
